<?xml version="1.0" encoding="utf-8"?>
<!-- Generator: Adobe Illustrator 21.0.2, SVG Export Plug-In . SVG Version: 6.00 Build 0)  -->
<svg version="1.1" id="Слой_1" xmlns="http://www.w3.org/2000/svg" xmlns:xlink="http://www.w3.org/1999/xlink" x="0px" y="0px"
	 viewBox="0 0 312.2 51.4" style="enable-background:new 0 0 312.2 51.4;" xml:space="preserve">
<g>
	<path fill="#000000" d="M33.7,13.4C33.7,6.4,28,2,21,2S8.2,6.4,8.2,13.4v2.2h25.5V13.4z M16.3,13.4c-1.6,0-3-1.3-3-3c0-1.6,1.3-3,3-3
		c1.6,0,3,1.3,3,3S18,13.4,16.3,13.4z M25.7,13.4c-1.6,0-3-1.3-3-3c0-1.6,1.3-3,3-3c1.6,0,3,1.3,3,3C28.6,12.1,27.3,13.4,25.7,13.4z
		 M0,20.3h3.1v11.3H0V20.3z M4.3,31.7c0,4.3,1.6,7.8,4.3,10.4V50h8.5v-3.8c1.2,0.3,2.6,0.4,3.9,0.4c1.3,0,2.7-0.1,3.9-0.4V50h8.5
		v-7.8c2.7-2.6,4.3-6.1,4.3-10.4V17.6H4.3V31.7z M25.3,34.8l7.1-3.2l-7.1-3.2v-2.1l9.3,4.4v1.9l-9.3,4.4L25.3,34.8L25.3,34.8z
		 M22.2,24.1h1.9l-4.2,14.7H18L22.2,24.1z M7.4,30.6l9.3-4.6v2.3l-7,3.2l7,3.2v2.2l-9.3-4.6V30.6z M41.9,20.3v11.3h-3.1V20.3H41.9z"
		/>
</g>
<g>
	<path fill="#000000" d="M104.5,11.5l-9.4,29.4H84.5l-4.7-15.7l-5,15.7H64.1l-9.4-29.4h10.2L70,28.2l5.4-16.7h9.1l5.1,16.9l5.4-16.9H104.5z"/>
	<path fill="#000000" d="M128,12.8c2,0.9,3.6,2.2,4.7,3.9c1.1,1.7,1.6,3.6,1.6,5.9s-0.5,4.2-1.6,5.9c-1.1,1.7-2.6,3-4.7,3.9c-2,0.9-4.4,1.3-7.1,1.3
		h-4.2v7.2h-9.9V11.5h14.2C123.6,11.5,125.9,11.9,128,12.8z M123.3,25.1c0.7-0.6,1-1.4,1-2.5s-0.3-1.9-1-2.5c-0.7-0.6-1.7-0.9-3-0.9
		h-3.6V26h3.6C121.6,26,122.6,25.7,123.3,25.1z"/>
	<path fill="#000000" d="M137,25.2h12.6v7.1H137V25.2z"/>
	<path fill="#000000" d="M166.5,33.5h-2.7v7.4h-9.9V11.5H168c2.7,0,5.1,0.4,7.1,1.3c2,0.9,3.6,2.2,4.7,3.9c1.1,1.7,1.6,3.6,1.6,5.9
		c0,2.1-0.5,3.9-1.4,5.5c-1,1.6-2.3,2.8-4.1,3.7l6.2,9.1h-10.6L166.5,33.5z M170.4,20c-0.7-0.6-1.7-0.9-3-0.9h-3.6V26h3.6
		c1.3,0,2.4-0.3,3-0.9c0.7-0.6,1-1.4,1-2.5S171.1,20.6,170.4,20z"/>
	<path fill="#000000" d="M190.1,39.8c-2-1-3.6-2.4-4.8-4.2c-1.1-1.8-1.7-3.9-1.7-6.2s0.6-4.3,1.7-6.2c1.1-1.8,2.7-3.2,4.8-4.2c2-1,4.3-1.5,6.9-1.5
		c2.6,0,4.9,0.5,6.9,1.5c2,1,3.6,2.4,4.7,4.2c1.1,1.8,1.7,3.9,1.7,6.2s-0.6,4.3-1.7,6.2c-1.1,1.8-2.7,3.2-4.7,4.2
		c-2,1-4.3,1.5-6.9,1.5C194.5,41.3,192.2,40.8,190.1,39.8z M199.7,32.7c0.7-0.8,1.1-1.9,1.1-3.3s-0.4-2.5-1.1-3.3
		c-0.7-0.8-1.6-1.2-2.7-1.2s-2,0.4-2.7,1.2c-0.7,0.8-1,1.9-1,3.3s0.3,2.5,1,3.3s1.6,1.2,2.7,1.2S199,33.5,199.7,32.7z"/>
	<path fill="#000000" d="M234.2,18.9c1.7,1,3,2.4,4,4.2c1,1.8,1.5,3.9,1.5,6.3s-0.5,4.5-1.5,6.3c-1,1.8-2.3,3.2-4,4.2c-1.7,1-3.5,1.4-5.6,1.4
		c-2.8,0-4.9-0.8-6.3-2.3v1.9h-9V9.7h9.5v9.7c1.3-1.3,3.3-2,5.8-2C230.7,17.5,232.5,18,234.2,18.9z M229.1,32.7
		c0.7-0.8,1.1-1.9,1.1-3.3s-0.4-2.5-1.1-3.3c-0.7-0.8-1.6-1.2-2.7-1.2s-2,0.4-2.7,1.2c-0.7,0.8-1,1.9-1,3.3s0.3,2.5,1,3.3
		s1.6,1.2,2.7,1.2S228.4,33.5,229.1,32.7z"/>
	<path fill="#000000" d="M248,39.8c-2-1-3.6-2.4-4.8-4.2c-1.1-1.8-1.7-3.9-1.7-6.2s0.6-4.3,1.7-6.2c1.1-1.8,2.7-3.2,4.8-4.2c2-1,4.3-1.5,6.9-1.5
		c2.6,0,4.9,0.5,6.9,1.5c2,1,3.6,2.4,4.7,4.2c1.1,1.8,1.7,3.9,1.7,6.2s-0.6,4.3-1.7,6.2c-1.1,1.8-2.7,3.2-4.7,4.2
		c-2,1-4.3,1.5-6.9,1.5C252.3,41.3,250,40.8,248,39.8z M257.6,32.7c0.7-0.8,1-1.9,1-3.3s-0.3-2.5-1-3.3c-0.7-0.8-1.6-1.2-2.7-1.2
		s-2,0.4-2.7,1.2c-0.7,0.8-1,1.9-1,3.3s0.3,2.5,1,3.3s1.6,1.2,2.7,1.2S256.9,33.5,257.6,32.7z"/>
	<path fill="#000000" d="M288.1,40.1c-1.4,0.8-3.4,1.2-5.8,1.2c-3.2,0-5.7-0.8-7.4-2.3c-1.7-1.6-2.6-3.9-2.6-7v-5.9h-3.2v-6.9h3.2v-6.4h9.5v6.4h4.7
		v6.9h-4.7v5.8c0,0.7,0.2,1.2,0.5,1.6c0.4,0.4,0.8,0.6,1.4,0.6c0.8,0,1.5-0.2,2.1-0.6L288.1,40.1z"/>
	<path fill="#000000" d="M293.7,40.7c-1.9-0.4-3.4-1-4.6-1.6l2.6-6.3c1.1,0.6,2.3,1.1,3.8,1.5c1.5,0.4,2.9,0.5,4.2,0.5c1.1,0,1.9-0.1,2.3-0.3
		c0.4-0.2,0.7-0.5,0.7-0.8c0-0.4-0.3-0.6-0.8-0.8c-0.5-0.1-1.4-0.3-2.7-0.4c-1.9-0.2-3.5-0.5-4.8-0.9c-1.3-0.3-2.5-1-3.5-2
		c-1-1-1.5-2.4-1.5-4.3c0-1.5,0.4-2.8,1.3-4c0.9-1.2,2.2-2.1,4-2.8c1.8-0.7,3.9-1,6.4-1c1.7,0,3.4,0.2,5.1,0.5
		c1.7,0.3,3.1,0.8,4.3,1.4l-2.6,6.3c-2-1.1-4.2-1.7-6.6-1.7c-2.1,0-3.1,0.4-3.1,1.1c0,0.4,0.3,0.6,0.8,0.8c0.6,0.2,1.4,0.3,2.6,0.4
		c1.9,0.2,3.5,0.5,4.8,0.9s2.5,1,3.4,2.1c1,1,1.5,2.5,1.5,4.3c0,1.4-0.4,2.7-1.3,3.9c-0.9,1.2-2.2,2.1-4,2.8s-4,1-6.5,1
		C297.6,41.3,295.6,41.1,293.7,40.7z"/>
</g>
</svg>
